<?xml version="1.0" standalone="no"?>
<!DOCTYPE svg PUBLIC "-//W3C//DTD SVG 20010904//EN"
 "http://www.w3.org/TR/2001/REC-SVG-20010904/DTD/svg10.dtd">
<svg version="1.0" xmlns="http://www.w3.org/2000/svg"
 width="16.000000pt" height="16.000000pt" viewBox="0 0 16.000000 16.000000"
 preserveAspectRatio="xMidYMid meet">
<metadata>
Created by potrace 1.11, written by Peter Selinger 2001-2013
</metadata>
<g transform="translate(0.000000,16.000000) scale(0.003333,-0.003333)"
fill="#000000" stroke="none">
<path d="M2817 4340 c-164 -116 -300 -210 -303 -210 -2 0 -4 90 -4 200 l0 200
-69 0 -68 0 -7 -92 c-3 -50 -6 -162 -6 -248 l0 -157 -72 -61 -73 -61 -25 72
c-62 176 -198 362 -310 425 -91 51 -206 92 -308 109 -168 28 -316 0 -507 -95
-49 -24 -125 -67 -167 -95 -68 -45 -77 -54 -87 -93 -19 -75 -21 -75 87 -38
246 84 429 63 544 -64 118 -133 176 -332 162 -559 l-7 -102 -66 -50 c-80 -62
-160 -120 -306 -223 -273 -194 -475 -341 -475 -347 0 -4 29 -19 65 -35 102
-44 265 -157 366 -254 264 -250 408 -523 412 -780 l2 -84 -125 -43 c-288 -101
-538 -252 -758 -460 -98 -92 -144 -186 -114 -231 5 -7 78 15 227 67 121 43
273 92 337 109 64 17 133 37 153 45 21 9 86 18 160 22 l125 6 0 -486 0 -487
455 0 455 0 0 213 c0 118 3 316 7 441 l6 228 46 -7 c100 -15 376 -87 561 -148
152 -50 199 -62 211 -53 8 6 185 152 393 325 l377 315 -3 925 -3 926 -27 97
c-96 351 -278 574 -761 937 -103 77 -157 111 -175 111 -19 0 -117 -64 -325
-210z m-9 -324 c37 -12 93 -37 125 -54 188 -101 423 -342 511 -525 42 -87 55
-141 56 -224 l0 -63 -77 -45 c-199 -116 -419 -166 -583 -131 -109 23 -175 59
-257 142 l-73 72 0 370 0 370 35 31 c43 37 82 58 132 70 56 13 58 13 131 -13z
m-448 -1936 l0 -1740 -70 0 -70 0 0 1688 1 1687 67 52 c37 29 68 53 70 53 1 0
2 -783 2 -1740z m-774 683 c-2 -3 -84 55 -181 128 l-176 132 178 116 178 117
3 -245 c1 -134 0 -246 -2 -248z m1912 -316 l-3 -174 -129 49 c-256 98 -425
102 -713 18 -59 -18 -116 -35 -125 -37 -17 -5 -18 15 -18 326 0 182 2 331 5
331 2 0 53 -20 112 -44 225 -92 387 -115 543 -78 109 26 235 72 285 104 l40
25 3 -173 c1 -96 1 -252 0 -347z m-318 -204 c163 -36 231 -65 280 -121 22 -25
43 -55 46 -66 2 -12 3 -168 2 -347 l-3 -326 -105 39 c-151 56 -517 168 -717
219 l-173 44 0 204 0 204 38 34 c51 46 113 82 207 120 79 33 82 33 195 27 63
-3 167 -17 230 -31z"/>
</g>
</svg>
